<svg width="182" height="44" viewBox="0 0 182 44" fill="none" xmlns="http://www.w3.org/2000/svg">
<path d="M59.2311 24.0261C59.2311 21.9403 57.2416 20.4321 54.4498 20.4321H48.5453V27.6522H54.4498C57.2416 27.6522 59.2311 26.1119 59.2311 24.0261ZM54.3856 11.2866H48.5453V17.4157H54.3856C56.8565 17.4157 58.5893 16.1642 58.5893 14.3672C58.5893 12.5701 56.8565 11.2866 54.3856 11.2866ZM55.0916 30.8291H44.6946V8.1097H54.9632C59.3595 8.1097 62.4722 10.6769 62.4722 14.2067C62.4722 16.4209 61.0602 18.3463 59.1028 18.8918C61.4453 19.4694 63.114 21.7157 63.114 24.347C63.114 28.1336 59.7767 30.8291 55.0916 30.8291ZM81.6111 30.8291H78.1775V28.7433C77.0544 30.444 75.0006 31.4709 72.9148 31.4709C68.9036 31.4709 66.3044 28.5187 66.3044 24.4754V14.5276H69.8021V24.2187C69.8021 26.6254 71.2141 28.3582 73.685 28.3582C76.0917 28.3582 78.1454 26.497 78.1454 23.8978V14.5276H81.6111V30.8291ZM99.2709 25.9194C99.2709 29.1604 96.3186 31.503 92.1791 31.503C87.8791 31.503 84.7664 28.9037 84.7664 25.3097H87.9753C87.9753 27.2351 89.7403 28.647 92.1791 28.647C94.3612 28.647 95.9336 27.6522 95.9015 26.3045C95.9015 24.6037 93.3664 24.1866 91.7298 23.9619C87.9112 23.3843 85.0231 22.903 85.0231 19.0201C85.0231 16.0358 87.8791 13.8537 91.5694 13.8537C95.7731 13.8537 98.8537 16.1963 98.8537 19.4373H95.6127C95.5806 17.8328 93.8798 16.7097 91.5373 16.7097C89.7724 16.7097 88.2962 17.6724 88.2962 18.9881C88.2962 20.2075 89.5156 20.5925 92.147 21.0418C95.2597 21.5552 99.2709 22.2291 99.2709 25.9194ZM102.691 14.5276H106.157V30.8291H102.691V14.5276ZM104.424 11.8963C103.141 11.8963 102.242 10.9978 102.242 9.74627C102.242 8.52686 103.141 7.66044 104.424 7.66044C105.676 7.66044 106.574 8.52686 106.574 9.74627C106.574 10.9978 105.676 11.8963 104.424 11.8963ZM110.242 14.5276H113.676V16.6134C114.831 14.9127 116.852 13.8858 118.97 13.8858C122.949 13.8858 125.549 16.8381 125.549 20.8813V30.8291H122.083V21.1381C122.083 18.7313 120.639 16.9985 118.2 16.9985C115.761 16.9985 113.74 18.8597 113.74 21.459V30.8291H110.242V14.5276ZM131.753 21.1701H141.893C141.508 18.603 139.454 16.806 136.758 16.806C134.127 16.806 132.202 18.5709 131.753 21.1701ZM128.126 22.4858C128.126 17.4798 131.785 13.8858 136.855 13.8858C141.925 13.8858 145.519 17.4798 145.519 22.5179C145.519 22.903 145.487 23.3843 145.455 23.7694L131.72 23.7373C132.138 26.6254 134.159 28.5507 136.823 28.5507C139.005 28.5507 141.026 27.2672 141.636 25.4701L144.909 25.9515C143.979 29.1604 140.609 31.4709 136.887 31.4709C131.785 31.4709 128.126 27.7164 128.126 22.4858ZM162.388 25.9194C162.388 29.1604 159.436 31.503 155.296 31.503C150.996 31.503 147.884 28.9037 147.884 25.3097H151.093C151.093 27.2351 152.858 28.647 155.296 28.647C157.479 28.647 159.051 27.6522 159.019 26.3045C159.019 24.6037 156.484 24.1866 154.847 23.9619C151.029 23.3843 148.14 22.903 148.14 19.0201C148.14 16.0358 150.996 13.8537 154.687 13.8537C158.89 13.8537 161.971 16.1963 161.971 19.4373H158.73C158.698 17.8328 156.997 16.7097 154.655 16.7097C152.89 16.7097 151.414 17.6724 151.414 18.9881C151.414 20.2075 152.633 20.5925 155.264 21.0418C158.377 21.5552 162.388 22.2291 162.388 25.9194ZM179.351 25.9194C179.351 29.1604 176.398 31.503 172.259 31.503C167.959 31.503 164.846 28.9037 164.846 25.3097H168.055C168.055 27.2351 169.82 28.647 172.259 28.647C174.441 28.647 176.013 27.6522 175.981 26.3045C175.981 24.6037 173.446 24.1866 171.81 23.9619C167.991 23.3843 165.103 22.903 165.103 19.0201C165.103 16.0358 167.959 13.8537 171.649 13.8537C175.853 13.8537 178.933 16.1963 178.933 19.4373H175.692C175.66 17.8328 173.96 16.7097 171.617 16.7097C169.852 16.7097 168.376 17.6724 168.376 18.9881C168.376 20.2075 169.595 20.5925 172.227 21.0418C175.339 21.5552 179.351 22.2291 179.351 25.9194Z" fill="#6E7C91"/>
<path fill-rule="evenodd" clip-rule="evenodd" d="M18.7791 13.5037L23.7725 18.497L19.018 23.2514L14.0247 18.2581L18.7791 13.5037ZM13.6596 8.38412L10.5289 5.2535C10.3504 5.07493 10.3504 4.7854 10.5289 4.60682L15.0018 0.133931C15.1804 -0.0446436 15.4699 -0.0446437 15.6485 0.133931L30.9399 15.4253C32.6363 17.1218 32.6363 19.8723 30.9399 21.5688L24.1376 28.371L27.2682 31.5016C27.4468 31.6802 27.4468 31.9697 27.2682 32.1483L22.7953 36.6212C22.6168 36.7998 22.3272 36.7998 22.1487 36.6212L6.85732 21.3299C5.16084 19.6334 5.16084 16.8828 6.85732 15.1864L13.6596 8.38412Z" fill="#6E7C91"/>
</svg>
