<svg width="227" height="44" viewBox="0 0 227 44" fill="none" xmlns="http://www.w3.org/2000/svg">
<path d="M60.5962 11.447L56.1358 23.7052H65.0887L60.5962 11.447ZM55.3014 26.5933L53.7932 30.8291H49.6858L57.8044 8.1097H63.388L71.4746 30.8291H67.3992L65.891 26.5933H55.3014ZM82.4299 28.1978C85.5426 28.1978 87.8209 25.8552 87.8209 22.6784C87.8209 19.4373 85.5105 17.159 82.4299 17.159C79.3172 17.159 77.0709 19.5015 77.0709 22.6784C77.0709 25.8552 79.3172 28.1978 82.4299 28.1978ZM91.2866 22.6784C91.2866 27.7806 87.853 31.4709 83.1038 31.4709C80.665 31.4709 78.5791 30.4119 77.1993 28.6149V38.2097H73.7015V14.5276H77.103V16.806C78.515 14.9769 80.6008 13.8858 83.1038 13.8858C87.8209 13.8858 91.2866 17.5761 91.2866 22.6784ZM102.902 28.1978C106.015 28.1978 108.293 25.8552 108.293 22.6784C108.293 19.4373 105.983 17.159 102.902 17.159C99.7893 17.159 97.5431 19.5015 97.5431 22.6784C97.5431 25.8552 99.7893 28.1978 102.902 28.1978ZM111.759 22.6784C111.759 27.7806 108.325 31.4709 103.576 31.4709C101.137 31.4709 99.0513 30.4119 97.6714 28.6149V38.2097H94.1737V14.5276H97.5751V16.806C98.9871 14.9769 101.073 13.8858 103.576 13.8858C108.293 13.8858 111.759 17.5761 111.759 22.6784ZM114.646 7.14701H118.111V30.8291H114.646V7.14701ZM122.217 14.5276H125.683V30.8291H122.217V14.5276ZM123.95 11.8963C122.667 11.8963 121.768 10.9978 121.768 9.74627C121.768 8.52686 122.667 7.66044 123.95 7.66044C125.202 7.66044 126.1 8.52686 126.1 9.74627C126.1 10.9978 125.202 11.8963 123.95 11.8963ZM137.598 13.8858C141.737 13.8858 145.139 16.4851 145.716 20.0791L142.379 20.4963C141.866 18.3784 139.876 16.8701 137.63 16.8701C134.742 16.8701 132.464 19.309 132.464 22.6784C132.496 26.0478 134.71 28.4866 137.63 28.4866C139.94 28.4866 141.834 26.9784 142.411 24.8925L145.749 25.3097C145.075 28.8716 141.641 31.4709 137.63 31.4709C132.624 31.4709 128.998 27.7806 128.998 22.6784C128.998 17.5761 132.624 13.8858 137.598 13.8858ZM156.728 28.3582C159.841 28.3582 162.087 25.9836 162.087 22.6784C162.087 19.3731 159.841 16.9985 156.728 16.9985C153.616 16.9985 151.337 19.3731 151.337 22.6784C151.337 25.9515 153.616 28.3582 156.728 28.3582ZM162.12 16.9664V14.5276H165.617V30.8291H162.12V28.3903C160.74 30.3157 158.59 31.4709 156.055 31.4709C151.273 31.4709 147.872 27.7806 147.872 22.6784C147.872 17.5761 151.273 13.8858 156.055 13.8858C158.59 13.8858 160.74 15.041 162.12 16.9664ZM170.683 26.2403V17.2552H168.18V14.5276H170.875L171.324 10.5806H174.18V14.5276H178.16V17.2552H174.18V26.0157C174.18 27.4918 175.079 28.5187 176.555 28.5187C177.004 28.5187 177.774 28.4224 178.384 28.2298V31.0216C177.55 31.3104 176.395 31.4709 175.496 31.4709C172.576 31.4709 170.683 29.353 170.683 26.2403ZM181.731 14.5276H185.197V30.8291H181.731V14.5276ZM183.464 11.8963C182.18 11.8963 181.282 10.9978 181.282 9.74627C181.282 8.52686 182.18 7.66044 183.464 7.66044C184.715 7.66044 185.614 8.52686 185.614 9.74627C185.614 10.9978 184.715 11.8963 183.464 11.8963ZM197.336 13.8858C202.535 13.8858 206.193 17.5119 206.193 22.6784C206.193 27.8448 202.535 31.4709 197.336 31.4709C192.105 31.4709 188.479 27.8448 188.479 22.6784C188.479 17.5119 192.105 13.8858 197.336 13.8858ZM197.336 28.3582C200.449 28.3582 202.727 25.9836 202.727 22.6784C202.727 19.3731 200.449 16.9985 197.336 16.9985C194.191 16.9985 191.977 19.3731 191.977 22.6784C191.977 25.9836 194.191 28.3582 197.336 28.3582ZM209.064 14.5276H212.498V16.6134C213.653 14.9127 215.675 13.8858 217.793 13.8858C221.772 13.8858 224.371 16.8381 224.371 20.8813V30.8291H220.905V21.1381C220.905 18.7313 219.461 16.9985 217.022 16.9985C214.584 16.9985 212.562 18.8597 212.562 21.459V30.8291H209.064V14.5276Z" fill="#6E7C91"/>
<path fill-rule="evenodd" clip-rule="evenodd" d="M16.5909 30.1819V23.0528H16.591V30.1818H27.5322C34.2137 30.1818 39.6302 24.7653 39.6302 18.0838C39.6302 12.0411 34.7317 7.14258 28.689 7.14258H28.1106C25.5078 7.14258 23.1066 8.00578 21.1777 9.46154C19.739 8.02843 17.7548 7.14258 15.5637 7.14258H15.3094C11.2363 7.14258 7.9017 10.3048 7.62687 14.3082C3.72798 14.6874 0.680664 17.9741 0.680664 21.9725C0.680664 26.5065 4.35613 30.1819 8.89005 30.1819H16.5909Z" fill="#6E7C91"/>
</svg>
