<svg width="166" height="44" viewBox="0 0 166 44" fill="none" xmlns="http://www.w3.org/2000/svg">
<path d="M67.6545 24.0261C67.6545 28.4545 64.1568 31.6313 58.6053 31.6313C52.9254 31.6313 48.818 28.1657 48.818 23.4164H52.4762C52.4762 26.3366 55.0433 28.4545 58.7015 28.4545C61.9426 28.4545 63.8359 26.7858 63.8359 24.5075C63.8359 21.9082 60.9478 21.5231 57.7388 21.0739C53.4709 20.4963 49.1068 19.7261 49.1068 14.4955C49.1068 10.2918 52.6687 7.30746 57.9635 7.30746C63.2903 7.30746 67.1411 10.5806 67.1411 15.1052H63.5791C63.5791 12.4097 61.2366 10.4843 57.9956 10.4843C54.915 10.4843 52.9254 12.0246 52.9254 14.1104C52.9254 16.7097 55.5568 17.1269 58.8299 17.5761C63.0657 18.1537 67.6545 18.9239 67.6545 24.0261ZM72.4033 26.2403V17.2552H69.9003V14.5276H72.5958L73.0451 10.5806H75.901V14.5276H79.8801V17.2552H75.901V26.0157C75.901 27.4918 76.7995 28.5187 78.2757 28.5187C78.7249 28.5187 79.4951 28.4224 80.1048 28.2298V31.0216C79.2704 31.3104 78.1152 31.4709 77.2167 31.4709C74.2966 31.4709 72.4033 29.353 72.4033 26.2403ZM91.0889 28.3582C94.2016 28.3582 96.4479 25.9836 96.4479 22.6784C96.4479 19.3731 94.2016 16.9985 91.0889 16.9985C87.9762 16.9985 85.6979 19.3731 85.6979 22.6784C85.6979 25.9515 87.9762 28.3582 91.0889 28.3582ZM96.48 16.9664V14.5276H99.9777V30.8291H96.48V28.3903C95.1001 30.3157 92.9501 31.4709 90.415 31.4709C85.6337 31.4709 82.2322 27.7806 82.2322 22.6784C82.2322 17.5761 85.6337 13.8858 90.415 13.8858C92.9501 13.8858 95.1001 15.041 96.48 16.9664ZM103.631 14.5276H107.001V16.6134C107.995 14.9448 109.568 13.95 111.429 13.95C112.071 13.95 112.809 14.1104 113.515 14.3672V17.4798C112.616 17.0948 111.621 16.9664 110.98 16.9664C108.669 16.9664 107.129 19.0201 107.129 21.9082V30.8291H103.631V14.5276ZM117.179 26.2403V17.2552H114.676V14.5276H117.372L117.821 10.5806H120.677V14.5276H124.656V17.2552H120.677V26.0157C120.677 27.4918 121.576 28.5187 123.052 28.5187C123.501 28.5187 124.271 28.4224 124.881 28.2298V31.0216C124.047 31.3104 122.891 31.4709 121.993 31.4709C119.073 31.4709 117.179 29.353 117.179 26.2403ZM142.764 30.8291H139.331V28.7433C138.208 30.444 136.154 31.4709 134.068 31.4709C130.057 31.4709 127.458 28.5187 127.458 24.4754V14.5276H130.955V24.2187C130.955 26.6254 132.367 28.3582 134.838 28.3582C137.245 28.3582 139.299 26.497 139.299 23.8978V14.5276H142.764V30.8291ZM155.161 28.1978C158.274 28.1978 160.553 25.8552 160.553 22.6784C160.553 19.4373 158.242 17.159 155.161 17.159C152.049 17.159 149.803 19.5015 149.803 22.6784C149.803 25.8552 152.049 28.1978 155.161 28.1978ZM164.018 22.6784C164.018 27.7806 160.585 31.4709 155.835 31.4709C153.397 31.4709 151.311 30.4119 149.931 28.6149V38.2097H146.433V14.5276H149.835V16.806C151.247 14.9769 153.332 13.8858 155.835 13.8858C160.553 13.8858 164.018 17.5761 164.018 22.6784Z" fill="#6E7C91"/>
<path d="M12.7161 21.7911L5.22421 29.3599C4.18584 30.4089 2.48868 30.4014 1.45956 29.3433C0.45272 28.3081 0.465755 26.6557 1.4888 25.6365L11.5556 15.6075C12.6145 14.5526 14.3265 14.5509 15.3875 15.6036L20.1751 20.3542L28.1281 12.2972H22.7221C21.3155 12.2972 20.1751 11.1569 20.1751 9.75016C20.1751 8.34347 21.3155 7.20312 22.7221 7.20312H34.2994C35.8001 7.20312 37.0167 8.41973 37.0167 9.92049V21.3938C37.0167 22.8579 35.8298 24.0448 34.3657 24.0448C32.9016 24.0448 31.7147 22.8579 31.7147 21.3938V15.9878L22.4357 25.225C21.1793 26.4758 19.1536 26.4936 17.8754 25.2649L14.2419 21.7722C13.8136 21.3605 13.1341 21.3689 12.7161 21.7911Z" fill="#6E7C91"/>
</svg>
