<svg width="200" height="44" viewBox="0 0 200 44" fill="none" xmlns="http://www.w3.org/2000/svg">
<path d="M60.3662 28.294C63.7035 28.294 66.7199 26.0478 67.5863 22.9351L71.2445 23.5448C70.2177 28.2298 65.6288 31.6313 60.3341 31.6313C53.4348 31.6313 48.4289 26.5291 48.4609 19.4694C48.4609 12.4097 53.4348 7.30746 60.3341 7.30746C65.6288 7.30746 70.2177 10.8694 71.2445 15.747L67.5542 16.1963C66.7841 12.9873 63.7677 10.6769 60.3662 10.6769C55.649 10.6769 52.3117 14.3351 52.3117 19.4694C52.3438 24.6037 55.6811 28.294 60.3662 28.294ZM82.4829 13.8858C87.6814 13.8858 91.3396 17.5119 91.3396 22.6784C91.3396 27.8448 87.6814 31.4709 82.4829 31.4709C77.2523 31.4709 73.6262 27.8448 73.6262 22.6784C73.6262 17.5119 77.2523 13.8858 82.4829 13.8858ZM82.4829 28.3582C85.5956 28.3582 87.8739 25.9836 87.8739 22.6784C87.8739 19.3731 85.5956 16.9985 82.4829 16.9985C79.3381 16.9985 77.1239 19.3731 77.1239 22.6784C77.1239 25.9836 79.3381 28.3582 82.4829 28.3582ZM97.7089 30.8291H94.2111V14.5276H97.5805V16.3888C98.6074 14.8164 100.308 13.8858 102.266 13.8858C104.801 13.8858 106.919 15.1052 107.881 16.9664C109.004 15.1052 111.058 13.9179 113.401 13.9179C117.219 13.9179 119.915 16.8381 119.915 20.9776V30.8291H116.449V21.2664C116.449 18.7955 114.877 17.0306 112.663 16.9985C110.384 16.9985 108.748 18.7955 108.748 21.2664V30.8291H105.25V21.2664C105.25 18.6993 103.806 16.9985 101.56 16.9985C99.2492 16.9985 97.7089 18.6993 97.7089 21.2664V30.8291ZM131.967 28.1978C135.079 28.1978 137.358 25.8552 137.358 22.6784C137.358 19.4373 135.047 17.159 131.967 17.159C128.854 17.159 126.608 19.5015 126.608 22.6784C126.608 25.8552 128.854 28.1978 131.967 28.1978ZM140.823 22.6784C140.823 27.7806 137.39 31.4709 132.641 31.4709C130.202 31.4709 128.116 30.4119 126.736 28.6149V38.2097H123.238V14.5276H126.64V16.806C128.052 14.9769 130.138 13.8858 132.641 13.8858C137.358 13.8858 140.823 17.5761 140.823 22.6784ZM151.797 28.3582C154.91 28.3582 157.156 25.9836 157.156 22.6784C157.156 19.3731 154.91 16.9985 151.797 16.9985C148.684 16.9985 146.406 19.3731 146.406 22.6784C146.406 25.9515 148.684 28.3582 151.797 28.3582ZM157.188 16.9664V14.5276H160.686V30.8291H157.188V28.3903C155.808 30.3157 153.658 31.4709 151.123 31.4709C146.342 31.4709 142.94 27.7806 142.94 22.6784C142.94 17.5761 146.342 13.8858 151.123 13.8858C153.658 13.8858 155.808 15.041 157.188 16.9664ZM164.339 14.5276H167.773V16.6134C168.928 14.9127 170.95 13.8858 173.068 13.8858C177.047 13.8858 179.646 16.8381 179.646 20.8813V30.8291H176.18V21.1381C176.18 18.7313 174.736 16.9985 172.298 16.9985C169.859 16.9985 167.837 18.8597 167.837 21.459V30.8291H164.339V14.5276ZM182.994 37.5358V34.7119C183.7 34.9687 184.502 35.1612 185.144 35.1612C187.39 35.1612 188.064 32.9149 188.898 30.8933L181.55 14.5276H185.369L190.471 26.5612L194.899 14.5276H198.557L192.171 31.2142C190.76 34.9687 189.316 38.0813 185.85 38.0813C184.919 38.0813 183.828 37.8888 182.994 37.5358Z" fill="#6E7C91"/>
<path fill-rule="evenodd" clip-rule="evenodd" d="M14.1033 4.1875C12.633 4.1875 11.4411 5.37941 11.4411 6.84971V15.4353H2.69834C1.22804 15.4353 0.0361328 16.6272 0.0361328 18.0975V38.3413C0.0361328 39.8116 1.22804 41.0035 2.69834 41.0035H22.7032C24.1735 41.0035 25.3654 39.8116 25.3654 38.3413V29.7557H34.1082C35.5784 29.7557 36.7704 28.5638 36.7704 27.0935V6.84971C36.7704 5.37941 35.5784 4.1875 34.1082 4.1875H14.1033ZM25.3654 29.7557V18.0975C25.3654 16.6272 24.1735 15.4353 22.7032 15.4353H11.4411V27.0935C11.4411 28.5638 12.633 29.7557 14.1033 29.7557H25.3654Z" fill="#6E7C91"/>
</svg>
