<svg width="177" height="30" viewBox="0 0 177 30" fill="none" xmlns="http://www.w3.org/2000/svg">
<path d="M10.6609 29.7894C10.3342 29.7894 10.0694 29.5245 10.0694 29.1978L10.0694 19.9302H19.9285L19.9285 29.1978C19.9285 29.5245 19.6637 29.7894 19.337 29.7894H10.6609Z" fill="#FF5252"/>
<path d="M0.802486 19.9303C0.475783 19.9303 0.210937 19.6654 0.210938 19.3387L0.210939 10.6627C0.210939 10.336 0.475785 10.0711 0.802488 10.0711L10.0701 10.0711L10.0694 19.9302L0.802486 19.9303Z" fill="#FF5252"/>
<path d="M10.0701 0.803515V10.0711L19.9292 10.0711L19.9285 19.9302L29.1969 19.9303C29.5236 19.9303 29.7884 19.6654 29.7884 19.3387V10.0711L29.7883 0.803463C29.7883 0.47676 29.5235 0.211914 29.1968 0.211914L19.9292 0.211968L10.6616 0.211966C10.3349 0.211966 10.0701 0.476812 10.0701 0.803515Z" fill="#FF5252"/>
<path d="M48.86 13.0801V18.1801H59.3V22.2301H44V0.870117H59V4.92012H48.86V9.48012H57.8V13.0801H48.86Z" fill="white"/>
<path d="M67.0009 22.2301H61.5409L66.7909 14.2501L61.7809 6.87012H67.1209L70.1809 11.7601L73.2409 6.87012H78.5809L73.5709 14.2501L78.8509 22.2301H73.3609L70.1809 16.8601L67.0009 22.2301Z" fill="white"/>
<path d="M89.9459 18.7801C92.2859 18.7801 93.9659 16.9801 93.9659 14.5501C93.9659 12.0901 92.2559 10.3201 89.9459 10.3201C87.6059 10.3201 85.9259 12.1201 85.9259 14.5501C85.9259 16.9801 87.6059 18.7801 89.9459 18.7801ZM98.4659 14.5501C98.4659 19.4101 95.4659 22.8301 91.1759 22.8301C89.0759 22.8301 87.3359 21.9301 86.1059 20.3701V29.1301H81.6059V6.87012H86.0459V8.73012C87.2759 7.20012 89.0459 6.27012 91.1759 6.27012C95.4359 6.27012 98.4659 9.69012 98.4659 14.5501Z" fill="white"/>
<path d="M105.604 13.1101H113.164C112.894 11.1601 111.394 9.72012 109.354 9.72012C107.374 9.72012 105.994 11.0701 105.604 13.1101ZM100.984 14.4301C100.984 9.63012 104.494 6.27012 109.444 6.27012C114.364 6.27012 117.724 9.63012 117.724 14.4901C117.724 14.8801 117.724 15.5101 117.664 15.8401L105.634 15.8101C106.024 17.9701 107.494 19.3801 109.534 19.3801C111.214 19.3801 112.624 18.4201 113.104 17.0701L117.154 17.6401C116.404 20.6401 113.164 22.8301 109.414 22.8301C104.464 22.8301 100.984 19.3801 100.984 14.4301Z" fill="white"/>
<path d="M120.922 6.87012H125.242V8.82012C126.142 7.29012 127.672 6.30012 129.352 6.30012C129.952 6.30012 130.582 6.45012 131.182 6.69012V10.6801C130.342 10.3201 129.322 10.1401 128.662 10.1401C126.712 10.1401 125.422 11.7601 125.422 14.0701V22.2301H120.922V6.87012Z" fill="white"/>
<path d="M134.954 17.2501V10.2901H132.794V6.87012H135.164L135.674 3.00012H139.454V6.87012H142.934V10.2901H139.454V16.8001C139.454 18.0901 140.234 18.9601 141.494 18.9601C141.914 18.9601 142.574 18.8701 143.084 18.7201V22.3501C142.154 22.6501 140.954 22.8301 139.994 22.8301C136.934 22.8301 134.954 20.5201 134.954 17.2501Z" fill="white"/>
<path d="M154.353 22.2301L161.463 10.9501L154.533 0.870117H160.383L165.393 8.28012L170.523 0.870117H176.463L169.203 10.9501L176.643 22.2301H170.703L165.393 13.7701L160.203 22.2301H154.353Z" fill="white"/>
</svg>
