<svg width="206" height="44" viewBox="0 0 206 44" fill="none" xmlns="http://www.w3.org/2000/svg">
<path d="M50.6933 20.5925V27.556H63.0157V30.8291H46.9709V8.1097H62.6948V11.3828H50.6933V17.6403H61.4112V20.5925H50.6933ZM66.1753 14.5276H69.6089V16.6134C70.7641 14.9127 72.7857 13.8858 74.9036 13.8858C78.8827 13.8858 81.482 16.8381 81.482 20.8813V30.8291H78.0163V21.1381C78.0163 18.7313 76.5723 16.9985 74.1335 16.9985C71.6947 16.9985 69.673 18.8597 69.673 21.459V30.8291H66.1753V14.5276ZM86.2418 26.2403V17.2552H83.7388V14.5276H86.4343L86.8836 10.5806H89.7395V14.5276H93.7186V17.2552H89.7395V26.0157C89.7395 27.4918 90.638 28.5187 92.1142 28.5187C92.5634 28.5187 93.3336 28.4224 93.9433 28.2298V31.0216C93.1089 31.3104 91.9537 31.4709 91.0552 31.4709C88.1351 31.4709 86.2418 29.353 86.2418 26.2403ZM99.6968 21.1701H109.837C109.452 18.603 107.398 16.806 104.703 16.806C102.071 16.806 100.146 18.5709 99.6968 21.1701ZM96.0707 22.4858C96.0707 17.4798 99.7289 13.8858 104.799 13.8858C109.869 13.8858 113.463 17.4798 113.463 22.5179C113.463 22.903 113.431 23.3843 113.399 23.7694L99.6647 23.7373C100.082 26.6254 102.104 28.5507 104.767 28.5507C106.949 28.5507 108.971 27.2672 109.58 25.4701L112.854 25.9515C111.923 29.1604 108.554 31.4709 104.831 31.4709C99.7289 31.4709 96.0707 27.7164 96.0707 22.4858ZM116.342 14.5276H119.711V16.6134C120.706 14.9448 122.278 13.95 124.139 13.95C124.781 13.95 125.519 14.1104 126.225 14.3672V17.4798C125.327 17.0948 124.332 16.9664 123.69 16.9664C121.38 16.9664 119.839 19.0201 119.839 21.9082V30.8291H116.342V14.5276ZM137.206 28.1978C140.319 28.1978 142.597 25.8552 142.597 22.6784C142.597 19.4373 140.287 17.159 137.206 17.159C134.094 17.159 131.847 19.5015 131.847 22.6784C131.847 25.8552 134.094 28.1978 137.206 28.1978ZM146.063 22.6784C146.063 27.7806 142.629 31.4709 137.88 31.4709C135.441 31.4709 133.355 30.4119 131.976 28.6149V38.2097H128.478V14.5276H131.879V16.806C133.291 14.9769 135.377 13.8858 137.88 13.8858C142.597 13.8858 146.063 17.5761 146.063 22.6784ZM148.95 14.5276H152.319V16.6134C153.314 14.9448 154.887 13.95 156.748 13.95C157.39 13.95 158.128 14.1104 158.834 14.3672V17.4798C157.935 17.0948 156.94 16.9664 156.299 16.9664C153.988 16.9664 152.448 19.0201 152.448 21.9082V30.8291H148.95V14.5276ZM161.536 14.5276H165.001V30.8291H161.536V14.5276ZM163.268 11.8963C161.985 11.8963 161.086 10.9978 161.086 9.74627C161.086 8.52686 161.985 7.66044 163.268 7.66044C164.52 7.66044 165.418 8.52686 165.418 9.74627C165.418 10.9978 164.52 11.8963 163.268 11.8963ZM183.077 25.9194C183.077 29.1604 180.125 31.503 175.985 31.503C171.685 31.503 168.573 28.9037 168.573 25.3097H171.782C171.782 27.2351 173.547 28.647 175.985 28.647C178.168 28.647 179.74 27.6522 179.708 26.3045C179.708 24.6037 177.173 24.1866 175.536 23.9619C171.718 23.3843 168.829 22.903 168.829 19.0201C168.829 16.0358 171.685 13.8537 175.376 13.8537C179.579 13.8537 182.66 16.1963 182.66 19.4373H179.419C179.387 17.8328 177.686 16.7097 175.344 16.7097C173.579 16.7097 172.103 17.6724 172.103 18.9881C172.103 20.2075 173.322 20.5925 175.953 21.0418C179.066 21.5552 183.077 22.2291 183.077 25.9194ZM188.905 21.1701H199.045C198.66 18.603 196.606 16.806 193.91 16.806C191.279 16.806 189.354 18.5709 188.905 21.1701ZM185.278 22.4858C185.278 17.4798 188.937 13.8858 194.007 13.8858C199.077 13.8858 202.671 17.4798 202.671 22.5179C202.671 22.903 202.639 23.3843 202.607 23.7694L188.872 23.7373C189.29 26.6254 191.311 28.5507 193.975 28.5507C196.157 28.5507 198.178 27.2672 198.788 25.4701L202.061 25.9515C201.131 29.1604 197.761 31.4709 194.039 31.4709C188.937 31.4709 185.278 27.7164 185.278 22.4858Z" fill="#6E7C91"/>
<g clip-path="url(#clip0_5012_19754)">
<path fill-rule="evenodd" clip-rule="evenodd" d="M0.847383 29.1568C0.847383 30.0505 1.75251 30.6596 2.58036 30.323L13.6424 25.8263C14.1169 25.6334 14.4272 25.1723 14.4272 24.6601L14.4272 19.5823C14.4272 19.0701 14.7375 18.609 15.212 18.4161L26.3138 13.9032C26.7883 13.7103 27.0986 13.2491 27.0986 12.7369L27.0986 6.78346C27.0986 6.08819 26.535 5.52456 25.8397 5.52456L14.7777 5.52456C14.0824 5.52456 13.5188 6.08819 13.5188 6.78346L13.5188 16.1888C13.5188 16.884 12.9552 17.4477 12.2599 17.4477L2.10629 17.4477C1.41101 17.4477 0.847384 18.0113 0.847384 18.7066L0.847383 29.1568Z" fill="#6E7C91"/>
<path fill-rule="evenodd" clip-rule="evenodd" d="M36.7034 14.1391C36.7034 13.2454 35.7983 12.6363 34.9704 12.9728L23.9084 17.4696C23.4339 17.6625 23.1236 18.1236 23.1236 18.6358V23.7136C23.1236 24.2258 22.8132 24.6869 22.3387 24.8798L11.237 29.3927C10.7625 29.5856 10.4521 30.0468 10.4521 30.559V36.5124C10.4521 37.2077 11.0158 37.7713 11.7111 37.7713H22.7731C23.4684 37.7713 24.032 37.2077 24.032 36.5124V27.1071C24.032 26.4119 24.5956 25.8482 25.2909 25.8482H35.4445C36.1398 25.8482 36.7034 25.2846 36.7034 24.5893V14.1391Z" fill="#6E7C91"/>
</g>
<defs>
<clipPath id="clip0_5012_19754">
<rect width="37.2049" height="37.2049" fill="white" transform="translate(0.178711 4.05078)"/>
</clipPath>
</defs>
</svg>
